<svg viewBox="0 0 620 640" xmlns="http://www.w3.org/2000/svg" role="img" font-family="sans-serif">
<title>지하차도 탈출 게임 화면 설계 (와이어프레임)</title>
<desc>상단 HUD, 중앙 게임 캔버스(출구·손잡이·차·나뭇가지·캐릭터·물·깊이눈금), 하단 이동 버튼과 범례로 구성된 화면 레이아웃.</desc>
<rect x="0" y="0" width="620" height="640" fill="#ffffff"/>

<rect x="160" y="14" width="300" height="612" rx="16" fill="#f1efe8" stroke="#cccccc"/>
<text x="310" y="42" text-anchor="middle" font-size="14" font-weight="500" fill="#222222">지하차도 침수 탈출</text>

<rect x="176" y="54" width="268" height="40" rx="8" fill="#ffffff" stroke="#cccccc"/>
<text x="210" y="71" text-anchor="middle" font-size="9" fill="#666677">골든타임</text>
<text x="210" y="86" text-anchor="middle" font-size="13" font-weight="500" fill="#185fa5">0:20</text>
<text x="280" y="71" text-anchor="middle" font-size="9" fill="#666677">점수</text>
<text x="280" y="86" text-anchor="middle" font-size="13" font-weight="500" fill="#222222">120</text>
<text x="360" y="71" text-anchor="middle" font-size="9" fill="#666677">남은 거리</text>
<text x="360" y="86" text-anchor="middle" font-size="13" font-weight="500" fill="#222222">14칸</text>
<text x="418" y="80" text-anchor="middle" font-size="9" fill="#888888">상태</text>

<rect x="176" y="104" width="268" height="380" rx="8" fill="#26323f"/>
<rect x="176" y="104" width="268" height="26" fill="#3ec98a"/>
<text x="310" y="121" text-anchor="middle" font-size="11" fill="#0c3b27">▲ 출구 EXIT ▲</text>
<rect x="188" y="130" width="8" height="354" fill="#3aa0e0"/>
<rect x="424" y="130" width="8" height="354" fill="#3aa0e0"/>
<line x1="246" y1="130" x2="246" y2="484" stroke="#33414f" stroke-dasharray="3 5"/>
<line x1="310" y1="130" x2="310" y2="484" stroke="#33414f" stroke-dasharray="3 5"/>
<line x1="374" y1="130" x2="374" y2="484" stroke="#33414f" stroke-dasharray="3 5"/>
<rect x="258" y="170" width="40" height="22" rx="4" fill="#454c57"/>
<rect x="322" y="210" width="40" height="22" rx="4" fill="#454c57"/>
<line x1="280" y1="260" x2="320" y2="256" stroke="#7a5230" stroke-width="4"/>
<circle cx="320" cy="256" r="3" fill="#5a8f3f"/>
<rect x="303" y="300" width="14" height="16" rx="3" fill="#f2c84b"/>
<circle cx="310" cy="298" r="6" fill="#f5dcb4"/>
<path d="M301 290 a9 7 0 0 1 18 0 z" fill="#e05656"/>
<rect x="176" y="360" width="268" height="124" fill="#3478dc" opacity="0.45"/>
<rect x="176" y="360" width="268" height="2" fill="#ffffff" opacity="0.6"/>
<text x="438" y="200" font-size="8" fill="#5a6b7c">20m</text>
<text x="438" y="300" font-size="8" fill="#5a6b7c">12m</text>
<text x="438" y="400" font-size="8" fill="#5a6b7c">6m</text>

<rect x="200" y="498" width="50" height="36" rx="8" fill="#ffffff" stroke="#cccccc"/>
<text x="225" y="521" text-anchor="middle" font-size="16" fill="#222222">←</text>
<rect x="258" y="498" width="50" height="36" rx="8" fill="#ffffff" stroke="#cccccc"/>
<text x="283" y="521" text-anchor="middle" font-size="16" fill="#222222">↑</text>
<rect x="316" y="498" width="50" height="36" rx="8" fill="#ffffff" stroke="#cccccc"/>
<text x="341" y="521" text-anchor="middle" font-size="16" fill="#222222">→</text>
<rect x="374" y="498" width="60" height="36" rx="8" fill="#378add"/>
<text x="404" y="521" text-anchor="middle" font-size="11" fill="#ffffff">시작/다시</text>

<rect x="176" y="544" width="268" height="70" rx="8" fill="#ffffff" stroke="#cccccc"/>
<rect x="188" y="556" width="11" height="11" rx="2" fill="#3aa0e0"/><text x="204" y="565" font-size="10" fill="#666677">손잡이(안전)</text>
<rect x="188" y="574" width="11" height="11" rx="2" fill="#454c57"/><text x="204" y="583" font-size="10" fill="#666677">버려진 차(막힘)</text>
<rect x="188" y="592" width="11" height="11" rx="2" fill="#7a5230"/><text x="204" y="601" font-size="10" fill="#666677">나뭇가지(밀림)</text>
<rect x="320" y="556" width="11" height="11" rx="2" fill="#5dc99a"/><text x="336" y="565" font-size="10" fill="#666677">사다리(2칸↑)</text>
<rect x="320" y="574" width="11" height="11" rx="2" fill="#d46a8a"/><text x="336" y="583" font-size="10" fill="#666677">튜브(보호)</text>
<rect x="320" y="592" width="11" height="11" rx="2" fill="#3478dc" opacity="0.5"/><text x="336" y="601" font-size="10" fill="#666677">물(차오름)</text>

<text x="466" y="74" font-size="10" fill="#999999">① HUD</text>
<line x1="448" y1="74" x2="462" y2="74" stroke="#bbbbbb"/>
<text x="466" y="200" font-size="10" fill="#999999">② 게임 화면</text>
<line x1="448" y1="200" x2="462" y2="200" stroke="#bbbbbb"/>
<text x="466" y="516" font-size="10" fill="#999999">③ 조작 버튼</text>
<line x1="448" y1="516" x2="462" y2="516" stroke="#bbbbbb"/>
<text x="466" y="578" font-size="10" fill="#999999">④ 범례</text>
<line x1="448" y1="578" x2="462" y2="578" stroke="#bbbbbb"/>
</svg>
